<?xml version="1.0" encoding="utf-8"?>
<!-- Generator: Adobe Illustrator 27.2.0, SVG Export Plug-In . SVG Version: 6.00 Build 0)  -->
<svg version="1.1" id="Layer_1" xmlns="http://www.w3.org/2000/svg" xmlns:xlink="http://www.w3.org/1999/xlink" x="0px" y="0px"
	 viewBox="0 0 806.2 599" style="enable-background:new 0 0 806.2 599;" xml:space="preserve">
<style type="text/css">
	.st0{fill:none;}
	.st1{fill:#FFFFFF;}
	.st2{fill:#B3B3B3;}
	.st3{fill:#111111;}
	.st4{fill:#191919;}
	.st5{fill:#0F0F0F;}
	.st6{fill:#050505;}
	.st7{fill:#121212;}
	.st8{fill:#080808;}
	.st9{opacity:0.12;}
	.st10{fill:url(#SVGID_00000148637276362483142300000012157662164431497100_);}
	.st11{fill:#1E1E1E;}
	.st12{fill:#262626;}
	.st13{fill:#E2E2E2;}
	.st14{fill:#0C0C0C;}
	.st15{fill:#FFFFFF;stroke:#E2E2E2;stroke-width:2;stroke-miterlimit:10;}
	.st16{opacity:0.5;enable-background:new    ;}
	.st17{opacity:0.5;}
	.st18{opacity:0.22;enable-background:new    ;}
	.st19{opacity:0.25;enable-background:new    ;}
	.st20{fill:#0B0B0F;}
	.st21{opacity:0.74;fill:url(#SVGID_00000012453607989411282900000014598657729740952484_);enable-background:new    ;}
	.st22{fill:url(#SVGID_00000119112478309311295990000013136212700992023432_);}
	.st23{opacity:0.2;}
	.st24{fill:url(#SVGID_00000126284274424987590960000011731468101558246295_);}
	.st25{opacity:8.000000e-02;}
	.st26{fill-rule:evenodd;clip-rule:evenodd;fill:#FFFFFF;}
</style>
<pattern  y="599" width="71" height="71" patternUnits="userSpaceOnUse" id="SVGID_0000013785121591920695531" viewBox="0 -71 71 71" style="overflow:visible;">
	<g>
		<rect y="-71" class="st0" width="71" height="71"/>
		<g>
			<rect y="-71" class="st0" width="71" height="71"/>
			<rect y="-71" class="st0" width="71" height="71"/>
			<g>
				<polygon class="st0" points="0,-71 71,-71 71,0 0,0 				"/>
				<g>
					<polygon class="st0" points="0,-71 71,-71 71,0 0,0 					"/>
					<path class="st1" d="M41.8-35.5c0,3.5-2.8,6.3-6.3,6.3s-6.3-2.8-6.3-6.3s2.8-6.3,6.3-6.3l0,0C39-41.8,41.8-39,41.8-35.5
						L41.8-35.5z"/>
				</g>
			</g>
		</g>
	</g>
</pattern>
<pattern  y="599" width="71" height="71" patternUnits="userSpaceOnUse" id="SVGID_1_" viewBox="0 -71 71 71" style="overflow:visible;">
	<g>
		<rect y="-71" class="st0" width="71" height="71"/>
		<g>
			<rect y="-71" class="st0" width="71" height="71"/>
			<rect y="-71" class="st0" width="71" height="71"/>
			<g>
				<polygon class="st0" points="0,-71 71,-71 71,0 0,0 				"/>
				<g>
					<polygon class="st0" points="0,-71 71,-71 71,0 0,0 					"/>
					<path class="st2" d="M41.8-35.5c0,3.5-2.8,6.3-6.3,6.3s-6.3-2.8-6.3-6.3s2.8-6.3,6.3-6.3l0,0C39-41.8,41.8-39,41.8-35.5
						L41.8-35.5z"/>
				</g>
			</g>
		</g>
	</g>
</pattern>
<g>
	<g>
		<path class="st3" d="M801.4,418.7c-2.9-15.5-17.7-102.5-32-144.6c-9.4-27.7-13.1-53-17-64.9c-12-35.7-33-65.7-33-65.7
			s-9.5-13.1-10.1-16.3s-4.7-8.6-4.7-8.6s-17.4-5.7-62.3-5.7s-53.7,5-53.7,5c-1.7,1.9-3.7,3.5-5.9,4.8c-3.5,1.8-11.7,1.7-11.7,1.7
			h-33.4c-0.3-0.1-0.7,0.1-0.9,0.3c-0.3,0.6-0.5,1.3-0.6,2H270c-0.1-0.7-0.3-1.4-0.6-2c-0.2-0.2-0.6-0.3-0.9-0.3h-33.4
			c0,0-8.2,0.2-11.7-1.7c-2.2-1.2-4.2-2.8-5.9-4.8c0,0-8.8-5-53.7-5s-62.3,5.7-62.3,5.7s-4.1,5.3-4.7,8.6
			c-0.6,3.3-10.1,16.3-10.1,16.3s-21,30-33,65.7c-4,11.9-7.7,37.2-17,64.9c-14.3,42.1-29.1,129.1-32,144.6
			C0.4,441.9,0,508.8,0,508.8s4.5,53.4,36.2,74.9s56.7,14,56.7,14s33.1-8.2,57.8-41.9s56.6-129.2,56.6-129.2
			c1.6-2.1,3.5-3.8,5.7-5.3c1.9-1.3,4-2.2,6.3-2.6l183.7,0.1l183.7-0.1c2.3,0.4,4.4,1.3,6.3,2.6c2.2,1.5,4.1,3.2,5.7,5.3
			c0,0,31.9,95.4,56.6,129.2s57.8,41.9,57.8,41.9s25,7.5,56.7-14s36.2-74.9,36.2-74.9S805.8,441.8,801.4,418.7z"/>
		<path class="st4" d="M36.7,276c9.4-27.7,13.1-53,17-64.9c12-35.7,33-65.7,33-65.7s9.5-13.1,10.1-16.3s4.7-8.6,4.7-8.6
			s17.4-5.7,62.3-5.7s53.7,5,53.7,5c1.7,1.9,3.7,3.5,5.9,4.8c3.5,1.8,11.7,1.7,11.7,1.7h33.4c0.3-0.1,0.7,0.1,0.9,0.3
			c0.3,0.6,0.5,1.3,0.6,2h266.2c0.1-0.7,0.3-1.4,0.6-2c0.2-0.2,0.6-0.3,0.9-0.3h33.4c0,0,8.2,0.2,11.7-1.7c2.2-1.2,4.2-2.8,5.9-4.8
			c0,0,8.8-5,53.7-5s62.3,5.7,62.3,5.7s4.1,5.3,4.7,8.6s10.1,16.3,10.1,16.3s21,30,33,65.7c4,11.9,7.7,37.2,17,64.9
			c14.3,42.1,29.1,129.1,32,144.6c3.9,20.9,4.6,77.3,4.7,88.3v-0.1c0,0-0.3-66.9-4.7-90.1c-2.9-15.5-17.7-102.5-32-144.6
			c-9.4-27.7-13.1-53-17-64.9c-12-35.7-33-65.7-33-65.7s-9.5-13.1-10.1-16.3s-4.7-8.6-4.7-8.6s-17.4-5.7-62.3-5.7s-53.7,5-53.7,5
			c-1.7,1.9-3.7,3.5-5.9,4.8c-3.5,1.8-11.7,1.7-11.7,1.7h-33.4c-0.3-0.1-0.7,0.1-0.9,0.3c-0.3,0.6-0.5,1.3-0.6,2H270
			c-0.1-0.7-0.3-1.4-0.6-2c-0.2-0.2-0.6-0.3-0.9-0.3h-33.4c0,0-8.2,0.2-11.7-1.7c-2.2-1.2-4.2-2.8-5.9-4.8c0,0-8.8-5-53.7-5
			s-62.3,5.7-62.3,5.7s-4.1,5.3-4.7,8.6c-0.6,3.3-10.1,16.3-10.1,16.3s-21,30-33,65.7c-4,11.9-7.7,37.2-17,64.9
			c-14.3,42.1-29.1,129.1-32,144.6C0.4,441.9,0,508.8,0,508.8v0.1c0.1-10.9,0.7-67.4,4.7-88.3C7.7,405.2,22.4,318.1,36.7,276z"/>
		<path class="st4" d="M351.3,360c0-42.2-34.3-76.5-76.5-76.5s-76.5,34.3-76.5,76.5c0,0.7,0,1.3,0.1,2c0,0.7-0.1,1.3-0.1,2
			c0,42.2,34.3,76.5,76.5,76.5s76.5-34.3,76.5-76.5c0-0.7,0-1.3-0.1-2C351.2,361.3,351.3,360.6,351.3,360z"/>
		<circle class="st5" cx="274.8" cy="356" r="73"/>
		<circle class="st6" cx="274.8" cy="356" r="51.5"/>
		<path class="st4" d="M607.9,360c0-42.2-34.3-76.5-76.5-76.5s-76.5,34.3-76.5,76.5c0,0.7,0,1.3,0.1,2c0,0.7-0.1,1.3-0.1,2
			c0,42.2,34.3,76.5,76.5,76.5s76.5-34.3,76.5-76.5c0-0.7,0-1.3-0.1-2C607.9,361.3,607.9,360.7,607.9,360z"/>
		<circle class="st5" cx="531.4" cy="356" r="73"/>
		<circle class="st6" cx="531.4" cy="356" r="51.5"/>
		<path class="st7" d="M534.9,128c-0.5-3.2-3.2-5.6-6.5-5.6H277.8c-3.3,0-6.1,2.4-6.5,5.6c-0.1,0.7-0.1,1.4-0.1,2.1v127.4
			c0,8.9,7.2,16.1,16.1,16.1l0,0h231.6c8.9,0,16.1-7.2,16.1-16.1l0,0V130.1C535.1,129.4,535,128.7,534.9,128z"/>
		<g>
			<path class="st8" d="M530.5,124.3c0-1-0.9-1.9-1.9-1.9l0,0H277.5c-1,0-1.9,0.9-1.9,1.9v129.2c0,8.6,7,15.6,15.6,15.6H515
				c8.6,0,15.6-7,15.6-15.6V130.4L530.5,124.3z"/>
			<g class="st9">
				
					<pattern  id="SVGID_00000120548035089017154520000016061273591405256070_" xlink:href="#SVGID_1_" patternTransform="matrix(0.1 0 0 0.1 -28982.3594 2553.6472)"  class="st9">
				</pattern>
				<path style="fill:url(#SVGID_00000120548035089017154520000016061273591405256070_);" d="M275.6,253.5c0,8.6,7,15.6,15.6,15.6
					H515c8.6,0,15.6-7,15.6-15.6V147H275.7v106.5H275.6z"/>
			</g>
		</g>
		<circle class="st11" cx="652.4" cy="244.8" r="94.3"/>
		<g>
			<circle class="st11" cx="153.8" cy="244.8" r="94.3"/>
			<path class="st12" d="M230.5,254.1l9.5-8.9c0.5-0.4,0.5-1.2,0.1-1.6c0,0,0-0.1-0.1-0.1l-9.5-8.9c-0.4-0.4-1.2-0.4-1.6,0
				c-0.2,0.2-0.3,0.5-0.3,0.8v17.8c0,0.6,0.5,1.2,1.1,1.2C230,254.4,230.3,254.3,230.5,254.1z"/>
			<path class="st12" d="M145.1,169.8h17.8c0.6,0,1.1-0.5,1.1-1.1c0-0.3-0.1-0.6-0.3-0.8l-8.9-9.5c-0.4-0.5-1.2-0.5-1.6-0.1
				c0,0-0.1,0-0.1,0.1l-8.9,9.5c-0.4,0.5-0.3,1.2,0.2,1.6C144.6,169.7,144.8,169.8,145.1,169.8z"/>
			<path class="st12" d="M77.6,234.6l-9.5,8.9c-0.5,0.4-0.5,1.2-0.1,1.6c0,0,0,0.1,0.1,0.1l9.5,8.9c0.4,0.4,1.2,0.4,1.6,0
				c0.2-0.2,0.3-0.5,0.3-0.8v-17.8c0-0.6-0.5-1.2-1.1-1.2C78.1,234.3,77.8,234.4,77.6,234.6z"/>
			<path class="st12" d="M162.9,318.8h-17.8c-0.6,0-1.1,0.5-1.1,1.1c0,0.3,0.1,0.6,0.3,0.8l8.9,9.5c0.4,0.5,1.2,0.5,1.6,0.1
				c0,0,0.1,0,0.1-0.1l8.9-9.5c0.4-0.5,0.3-1.2-0.2-1.6C163.4,318.9,163.2,318.8,162.9,318.8z"/>
		</g>
	</g>
	<g>
		<g>
			<path class="st13" d="M697.3,109.9c0-0.8-0.4-1.5-1.1-1.9c-4.5-2.9-23.4-13.6-51.5-13.6c-26.9,0-41.1,5.9-45.1,8
				c-0.7,0.4-1.2,1.2-1.2,2c0,0,9.8-2.9,47.5-2.9S697.3,109.9,697.3,109.9z"/>
			<path class="st1" d="M697.2,116.8L697.2,116.8v-6.9c0,0-13.7-8.4-51.4-8.4s-47.5,2.9-47.5,2.9v11l0,0c7.7-1.3,21.2-2.6,44.1-2.6
				C670.9,112.9,688.3,115.2,697.2,116.8z"/>
		</g>
		<g>
			<path class="st13" d="M108.9,109.9c0-0.8,0.4-1.5,1.1-1.9c4.5-2.9,23.4-13.6,51.5-13.6c26.9,0,41.1,5.9,45.1,8
				c0.7,0.4,1.2,1.2,1.2,2c0,0-9.8-2.9-47.5-2.9S108.9,109.9,108.9,109.9z"/>
			<path class="st1" d="M109,116.8L109,116.8v-6.9c0,0,13.7-8.4,51.4-8.4s47.5,2.9,47.5,2.9v11l0,0c-7.7-1.3-21.2-2.6-44.1-2.6
				C135.3,112.9,117.9,115.2,109,116.8z"/>
		</g>
	</g>
	<g>
		<g>
			<g>
				<path class="st1" d="M710,271c-14.5,0-26.3-11.8-26.3-26.3s11.8-26.3,26.3-26.3s26.3,11.8,26.3,26.3l0,0
					C736.3,259.2,724.5,271,710,271z"/>
				<path class="st13" d="M710,219.5c14,0,25.3,11.3,25.3,25.3c0,14-11.3,25.3-25.3,25.3s-25.3-11.3-25.3-25.3l0,0
					C684.7,230.8,696,219.5,710,219.5 M710,217.5c-15.1,0-27.3,12.2-27.3,27.3c0,15.1,12.2,27.3,27.3,27.3s27.3-12.2,27.3-27.3l0,0
					C737.3,229.7,725.1,217.5,710,217.5z"/>
			</g>
			<path class="st14" d="M710,225.9c-10.4,0-18.9,8.5-18.9,18.9s8.5,18.9,18.9,18.9s18.9-8.5,18.9-18.9S720.4,225.9,710,225.9z
				 M710,260.8c-8.8,0-16-7.2-16-16s7.2-16,16-16s16,7.2,16,16S718.8,260.8,710,260.8z"/>
		</g>
		<g>
			<g>
				<path class="st1" d="M652.4,328.6c-14.5,0-26.3-11.8-26.3-26.3s11.8-26.3,26.3-26.3s26.3,11.8,26.3,26.3l0,0
					C678.7,316.8,666.9,328.6,652.4,328.6z"/>
				<path class="st13" d="M652.4,277.1c14,0,25.3,11.3,25.3,25.3s-11.3,25.3-25.3,25.3s-25.3-11.3-25.3-25.3l0,0
					C627.1,288.4,638.4,277.1,652.4,277.1 M652.4,275.1c-15.1,0-27.3,12.2-27.3,27.3s12.2,27.3,27.3,27.3s27.3-12.2,27.3-27.3l0,0
					C679.7,287.3,667.5,275.1,652.4,275.1z"/>
			</g>
			<polygon class="st14" points="666.8,290 664.8,288 652.4,300.4 640.1,288 638.1,290 650.4,302.4 638.1,314.7 640.1,316.8 
				652.4,304.4 664.8,316.8 666.8,314.7 654.4,302.4 			"/>
		</g>
		<g>
			<g>
				<path class="st1" d="M594.9,271c-14.5,0.1-26.3-11.7-26.4-26.2c-0.1-14.5,11.7-26.3,26.2-26.4s26.3,11.7,26.4,26.2
					c0,0.1,0,0.1,0,0.2C621,259.2,609.3,270.9,594.9,271z"/>
				<path class="st13" d="M594.8,219.5c14,0,25.3,11.3,25.3,25.3c0,14-11.3,25.3-25.3,25.3s-25.3-11.3-25.3-25.3l0,0
					C569.5,230.8,580.8,219.5,594.8,219.5 M594.8,217.5c-15.1,0-27.3,12.2-27.3,27.3c0,15.1,12.2,27.3,27.3,27.3
					s27.3-12.2,27.3-27.3l0,0C622.1,229.7,609.9,217.5,594.8,217.5z"/>
			</g>
			<path class="st14" d="M606.4,230.4h-25.8V259h28.6v-28.6H606.4z M606.4,256.3h-23v-23h23V256.3z"/>
		</g>
		<g>
			<g>
				<path class="st1" d="M652.4,213.5c-14.5,0-26.3-11.8-26.3-26.3s11.8-26.3,26.3-26.3s26.3,11.8,26.3,26.3l0,0
					C678.7,201.7,666.9,213.5,652.4,213.5z"/>
				<path class="st13" d="M652.4,162c14,0,25.3,11.3,25.3,25.3s-11.3,25.3-25.3,25.3s-25.3-11.3-25.3-25.3l0,0
					C627.1,173.3,638.4,162,652.4,162 M652.4,160c-15.1,0-27.3,12.2-27.3,27.3s12.2,27.3,27.3,27.3s27.3-12.2,27.3-27.3l0,0
					C679.7,172.2,667.5,160,652.4,160z"/>
			</g>
			<path class="st14" d="M668.4,195.2l-16-27.6l-16,27.6l-1.6,2.8H670L668.4,195.2z M652.4,195.2h-12.7l12.7-21.9l12.7,21.9H652.4z"
				/>
		</g>
	</g>
	<g>
		<g>
			<circle cx="403.1" cy="316.4" r="4.1"/>
			<circle cx="403.1" cy="295.5" r="4.1"/>
			<circle cx="396.2" cy="305.7" r="4.1"/>
			<circle cx="381.5" cy="305.7" r="4.1"/>
			<circle cx="388.8" cy="316.4" r="4.1"/>
			<circle cx="388.8" cy="295.5" r="4.1"/>
			<circle cx="374.5" cy="295.5" r="4.1"/>
		</g>
		<g>
			<circle cx="410" cy="305.7" r="4.1"/>
			<circle cx="424.7" cy="305.7" r="4.1"/>
			<circle cx="417.3" cy="316.4" r="4.1"/>
			<circle cx="417.3" cy="295.5" r="4.1"/>
			<circle cx="431.7" cy="295.5" r="4.1"/>
		</g>
	</g>
	<g>
		<circle class="st15" cx="403.1" cy="362" r="20.2"/>
		<g>
			<path class="st5" d="M404.2,368.6v-12.8c0-0.4,0.1-0.7,0.3-1c0.2-0.2,0.4-0.3,0.7-0.2c0.6,0.2,0.9,0.7,0.9,1.7v6.9
				c0.6,0.3,1.4,0.5,2.1,0.5c0.6,0,1.1-0.2,1.6-0.5c1-0.7,1.5-1.9,1.5-3.7c0.1-1.5-0.3-3.1-1.2-4.3c-1.1-1.2-2.5-2.1-4.1-2.6
				c-1.3-0.4-2.5-0.8-3.6-1.1s-2-0.5-2.9-0.7V363l0,0v2.7l0,0v1.7l0,0v2.5l0,0v1.5l4.7,1.5v-3.6l0,0V368.6z"/>
			<path class="st5" d="M399.1,367.6l-1.7,0.6l-0.9,0.4l-1.6,0.3l-1.5-0.2c-0.3-0.2-0.4-0.4-0.2-0.6s0.2-0.1,0.3-0.2
				s0.3-0.1,0.4-0.2l1.1-0.4l4.1-1.5v-2.7l-1.7,0.5l-5.5,2l-1,0.4c-1.5,0.6-2.2,1.2-2.2,1.8c0.1,0.8,1,1.5,2.7,1.9
				c1.4,0.4,2.9,0.5,4.3,0.5c1.1,0,2.2-0.1,3.3-0.3L399.1,367.6L399.1,367.6z"/>
			<path class="st5" d="M414.9,365.3c-0.8-0.3-1.6-0.5-2.5-0.6c-0.8-0.1-1.7-0.2-2.5-0.1c-0.9,0.1-1.9,0.2-2.8,0.3
				c-0.9,0.2-1.8,0.5-2.6,0.8v2.8l3.9-1.4l1.6-0.5l1.1-0.3h1.4c0.3,0.1,0.6,0.2,0.7,0.4s-0.2,0.4-0.8,0.6l-1.4,0.5l-6.5,2.4v2.7
				l3.5-1.3l6.4-2.3l0.7-0.4c1.5-0.5,2.2-1.2,2.2-1.9S416.5,365.8,414.9,365.3z"/>
		</g>
	</g>
	<path class="st5" d="M105.3,544.5C64.8,541.7,29.5,524.2,18,514S0.5,482.5,0.5,482.5c-0.4,15-0.4,26.3-0.4,26.3s4.5,53.4,36.2,74.9
		s56.7,14,56.7,14s33.1-8.2,57.8-41.9c5.3-7.6,10-15.5,14.1-23.8C164.8,531.9,145.7,547.2,105.3,544.5z"/>
	<path class="st5" d="M700.9,544.5c40.5-2.8,75.8-20.3,87.3-30.5s17.5-31.5,17.5-31.5c0.4,15,0.4,26.3,0.4,26.3s-4.5,53.4-36.2,74.9
		s-56.7,14-56.7,14s-33.1-8.2-57.8-41.9c-5.3-7.6-10-15.5-14.1-23.8C641.4,531.9,660.5,547.2,700.9,544.5z"/>
	<g>
		<g>
			<path class="st16" d="M90.1,592.5c-12.5,1.8-31.3-2-45.1-7.7c-13.6-5.7-24-16.4-24-16.4c4.2,5.9,9.4,11,15.3,15.2
				c31.7,21.5,56.7,14,56.7,14s11.7-2.9,26.3-12.3C109.8,588.6,100,591,90.1,592.5z"/>
		</g>
		<g class="st17">
			<path class="st18" d="M716.1,592.5c12.5,1.8,31.3-2,45.1-7.7c13.6-5.7,24-16.4,24-16.4c-4.2,5.9-9.4,11-15.3,15.2
				c-31.7,21.5-56.7,14-56.7,14s-11.7-2.9-26.3-12.3C696.4,588.6,706.2,591,716.1,592.5z"/>
		</g>
		<g>
			<path class="st13" d="M240.6,143.5c6.9,0,12.5,5.6,12.5,12.5v18.3c0,6.9-5.6,12.5-12.5,12.5s-12.5-5.6-12.5-12.5V156
				C228.1,149.1,233.7,143.5,240.6,143.5 M240.6,141.8c-7.8,0-14.2,6.4-14.2,14.2v18.3c0,7.8,6.4,14.2,14.2,14.2s14.2-6.4,14.2-14.2
				V156C254.8,148.2,248.5,141.8,240.6,141.8L240.6,141.8z"/>
			<path class="st1" d="M240.6,143.5c-6.9,0-12.5,5.6-12.5,12.5v18.3c0,6.9,5.6,12.5,12.5,12.5s12.5-5.6,12.5-12.5V156
				C253.1,149.1,247.5,143.5,240.6,143.5z"/>
		</g>
		<g>
			<path class="st13" d="M565.6,143.5c6.9,0,12.5,5.6,12.5,12.5v18.3c0,6.9-5.6,12.5-12.5,12.5l0,0l0,0c-6.9,0-12.5-5.6-12.5-12.5
				l0,0V156C553.1,149.1,558.7,143.5,565.6,143.5L565.6,143.5 M565.6,141.8c-7.8,0-14.2,6.4-14.2,14.2v18.3
				c0,7.8,6.4,14.2,14.2,14.2s14.2-6.4,14.2-14.2l0,0V156C579.8,148.2,573.5,141.8,565.6,141.8L565.6,141.8z"/>
			<path class="st1" d="M565.6,143.5c-6.9,0-12.5,5.6-12.5,12.5v18.3c0,6.9,5.6,12.5,12.5,12.5s12.5-5.6,12.5-12.5V156
				C578.1,149.1,572.5,143.5,565.6,143.5z"/>
		</g>
		<g>
			<g>
				<path class="st1" d="M141.3,247.2c1.4-2,1.2-2.9,1.2-2.9s0.2-0.9-1.2-2.9s-15-13.6-15.7-14s-28.5-2.2-31.4,1.3
					s-2.6,15.6-2.6,15.6s-0.3,12.1,2.6,15.6s30.7,1.7,31.4,1.3S139.9,249.2,141.3,247.2z"/>
				<path class="st19" d="M141.3,247.2c1.4-2,1.2-2.9,1.2-2.9s0.2-0.9-1.2-2.9c-0.9-1.3-6.9-6.6-11.2-10.3
					c-2.2,4.1-3.4,8.6-3.4,13.2c0,4.6,1.1,9.2,3.4,13.2C134.4,253.8,140.4,248.5,141.3,247.2z"/>
			</g>
			<g>
				<path class="st1" d="M151.1,231.6c2,1.4,2.9,1.2,2.9,1.2s0.9,0.2,2.9-1.2s13.6-15,14-15.7s2.2-28.5-1.3-31.4s-15.6-2.6-15.6-2.6
					s-12.1-0.3-15.6,2.6s-1.7,30.7-1.3,31.4S149.1,230.2,151.1,231.6z"/>
				<path class="st19" d="M151.1,231.6c2,1.4,2.9,1.2,2.9,1.2s0.9,0.2,2.9-1.2c1.3-0.9,6.6-6.9,10.3-11.2c-4.1-2.2-8.6-3.4-13.2-3.4
					c-4.6,0-9.2,1.1-13.2,3.4C144.6,224.7,149.8,230.7,151.1,231.6z"/>
			</g>
			<g>
				<path class="st1" d="M213.8,228.8c-2.9-3.5-30.7-1.7-31.4-1.3s-14.3,12-15.7,14s-1.2,2.9-1.2,2.9s-0.2,0.9,1.2,2.9
					s15,13.6,15.7,14s28.5,2.2,31.4-1.3s2.6-15.6,2.6-15.6S216.7,232.3,213.8,228.8z"/>
				<path class="st19" d="M178,231.2c-4.3,3.7-10.3,9-11.2,10.3c-1.4,2-1.2,2.9-1.2,2.9s-0.2,0.9,1.2,2.9c0.9,1.3,6.9,6.6,11.2,10.3
					C182.5,249.4,182.5,239.4,178,231.2L178,231.2z"/>
			</g>
			<g>
				<path class="st1" d="M156.9,257.1c-2-1.4-2.9-1.2-2.9-1.2s-0.9-0.2-2.9,1.2s-13.6,15-14,15.7s-2.2,28.5,1.3,31.4
					s15.6,2.6,15.6,2.6s12.1,0.3,15.6-2.6s1.7-30.7,1.3-31.4S158.9,258.5,156.9,257.1z"/>
				<path class="st19" d="M156.9,257.1c-2-1.4-2.9-1.2-2.9-1.2s-0.9-0.2-2.9,1.2c-1.3,0.9-6.6,6.9-10.3,11.2
					c4.1,2.2,8.6,3.4,13.2,3.4c4.6,0,9.2-1.1,13.2-3.4C163.5,264,158.2,258,156.9,257.1z"/>
			</g>
		</g>
	</g>
	<path class="st20" d="M436.7,421h-67.9c-2.8,0-4.6,0.6-4.6-2.2l0,0c0-2.8,2.2-5,5-5h67.9c2.8,0,5,2.2,5,5l0,0
		C442.2,421.5,439.5,421,436.7,421z"/>
	<path d="M408.4,418.8h-36.5c-0.5,0-0.9-0.4-0.9-0.9l0,0c0-1.1,0.9-2,2-2h34.2c1.1,0,2,0.9,2,2l0,0c0.1,0.4-0.2,0.8-0.6,0.9
		C408.5,418.8,408.5,418.8,408.4,418.8z"/>
	<path d="M430.6,419.6h-4.2c-0.9,0-1.7-0.8-1.7-1.7l0,0c0-1.5,1.3-2.8,2.8-2.8h1.9c1.5,0,2.8,1.3,2.8,2.8l0,0
		c0.1,0.8-0.5,1.6-1.3,1.7C430.8,419.6,430.7,419.6,430.6,419.6z"/>
	<g>
		
			<linearGradient id="SVGID_00000121281931602763668760000007798278848852920972_" gradientUnits="userSpaceOnUse" x1="271.2" y1="402" x2="535.0414" y2="402" gradientTransform="matrix(1 0 0 -1 0 600)">
			<stop  offset="0" style="stop-color:#AADBFF"/>
			<stop  offset="0.5" style="stop-color:#E994FF"/>
			<stop  offset="1" style="stop-color:#FF558D"/>
		</linearGradient>
		<path style="opacity:0.74;fill:url(#SVGID_00000121281931602763668760000007798278848852920972_);enable-background:new    ;" d="
			M534.9,128c-0.5-3.2-3.2-5.6-6.5-5.6H277.8c-3.3,0-6.1,2.4-6.5,5.6c-0.1,0.7-0.1,1.4-0.1,2.1v127.4c0,8.9,7.2,16.1,16.1,16.1l0,0
			h231.6c8.9,0,16.1-7.2,16.1-16.1l0,0V130.1C535.1,129.4,535,128.7,534.9,128z"/>
		<g>
			
				<linearGradient id="SVGID_00000052818195542129656310000007974304473613361550_" gradientUnits="userSpaceOnUse" x1="305.25" y1="310.4" x2="500.9" y2="506.05" gradientTransform="matrix(1 0 0 -1 0 600)">
				<stop  offset="0" style="stop-color:#CBDBFF"/>
				<stop  offset="0.5" style="stop-color:#FFB5FF"/>
				<stop  offset="0.6335" style="stop-color:#FFB2FC"/>
				<stop  offset="0.7457" style="stop-color:#FFAAF1"/>
				<stop  offset="0.8502" style="stop-color:#FF9CE0"/>
				<stop  offset="0.9495" style="stop-color:#FF89C8"/>
				<stop  offset="1" style="stop-color:#FF7DB8"/>
			</linearGradient>
			<path style="fill:url(#SVGID_00000052818195542129656310000007974304473613361550_);" d="M530.5,124.3c0-1-0.9-1.9-1.9-1.9l0,0
				H277.5c-1,0-1.9,0.9-1.9,1.9v129.2c0,8.6,7,15.6,15.6,15.6H515c8.6,0,15.6-7,15.6-15.6V130.4L530.5,124.3z"/>
			<g class="st23">
				
					<pattern  id="SVGID_00000040559365337558891440000007033281355342799498_" xlink:href="#SVGID_0000013785121591920695531" patternTransform="matrix(0.1 0 0 0.1 -28982.3594 2553.6472)"  class="st23">
				</pattern>
				<path style="fill:url(#SVGID_00000040559365337558891440000007033281355342799498_);" d="M275.6,253.5c0,8.6,7,15.6,15.6,15.6
					H515c8.6,0,15.6-7,15.6-15.6V147H275.7v106.5H275.6z"/>
			</g>
		</g>
	</g>
</g>
<g>
	<g>
		<g>
			<path class="st1" d="M697.2,90.8c0,0-32.7-3.2-50.6-3.2S598.3,90,598.3,90s3.1-44.7,4.8-52s7.7-21.3,16.9-27.9S632,0,642.8,0
				s25.4,6.4,34.6,21.4S697.2,90.8,697.2,90.8z"/>
			<path class="st13" d="M598.8,83.2c0,0,26.1-4.4,49-4.4s47.9,4.4,47.9,4.4c1,4.7,1.6,7.6,1.6,7.6s-32.7-3.2-50.6-3.2
				S598.4,90,598.4,90S598.4,87.3,598.8,83.2z"/>
		</g>
		<g class="st25">
			<path d="M648.8,65.7l-3.2,2.6c-1.2,1.2-1.9,2.8-2,4.5h9.8v-2.6h-6.3c0.6-0.8,1.3-1.4,2.1-1.9c1-0.6,1.9-1.3,2.7-2.1
				c0.8-0.9,1.3-2.1,1.3-3.3c0-1.3-0.5-2.5-1.4-3.3c-1-0.8-2.2-1.2-3.5-1.2c-3.1,0-4.7,1.7-4.7,5h2.7c0-1.8,0.7-2.7,2.1-2.7
				c1-0.1,1.9,0.6,2,1.6c0,0.2,0,0.3,0,0.5C650.4,64,649.8,65.1,648.8,65.7z"/>
			<path d="M631.2,67.2h3c1.5,0,2.3,0.6,2.4,1.9s0.2,2.5,0.3,3.8h3.3v-0.4c-0.5-0.2-0.7-0.7-0.7-1.5c0-0.3,0-0.5,0.1-0.8v-0.7
				c0.2-1.4-0.6-2.8-1.8-3.5c1.4-0.5,2.3-1.9,2.2-3.4c0.1-1.2-0.4-2.3-1.3-3c-0.9-0.7-2-1.1-3.2-1h-7.3v14.3h3V67.2z M631.2,60.9
				h3.7c1.4,0,2.1,0.6,2.1,1.9s-0.8,1.9-2.3,1.9h-3.5V60.9z"/>
		</g>
	</g>
	<g>
		<g>
			<path class="st1" d="M108.9,90.8c0,0,32.7-3.2,50.6-3.2s48.3,2.4,48.3,2.4s-3.1-44.7-4.8-52s-7.7-21.3-16.9-27.9S174.1,0,163.3,0
				s-25.4,6.4-34.6,21.4S108.9,90.8,108.9,90.8z"/>
			<path class="st13" d="M207.3,83.2c0,0-26.1-4.4-49-4.4s-47.9,4.4-47.9,4.4c-1,4.7-1.6,7.6-1.6,7.6s32.7-3.2,50.6-3.2
				s48.3,2.4,48.3,2.4S207.7,87.3,207.3,83.2z"/>
		</g>
		<g class="st25">
			<path d="M173.4,65.7l-3.2,2.6c-1.2,1.2-1.9,2.8-2,4.5h9.8v-2.6h-6.2c0.6-0.8,1.3-1.4,2.1-1.9c1-0.6,1.9-1.3,2.7-2.1
				c0.8-0.9,1.3-2.1,1.3-3.3c0-1.3-0.5-2.5-1.4-3.3c-1-0.8-2.2-1.2-3.5-1.2c-3.1,0-4.7,1.7-4.7,5h2.7c0-1.8,0.7-2.7,2.1-2.7
				c1-0.1,1.9,0.6,2,1.6c0,0.2,0,0.3,0,0.5C175,64,174.4,65.1,173.4,65.7z"/>
			<polygon points="164.9,70.1 157.8,70.1 157.8,58.5 154.8,58.5 154.8,72.8 164.9,72.8 			"/>
		</g>
	</g>
</g>
<g>
	<path class="st26" d="M403.1,134.7c0.1,0.1,0,1.3,0,1.5c0,0.7,0.1,1.7,0,2.3c-0.1,0.2,0,0.6,0,0.8c0,0.2,0,0.3,0,0.5
		c0,0.2,0,0.5-0.1,0.7c0,0.3-0.1,0.6-0.1,0.8c-0.2,0.8-0.3,1.5-0.7,2.2c-1,1.6-2.5,2.3-4.1,3.3c-2.4,1.5-5,2.8-7.4,4.3
		c-1.5,0.9-3,1.6-4.4,2.5c-3.7,2.3-7.6,4.3-11.3,6.5c-1.3,0.8-2.7,1.5-4.1,2.3c-2.5,1.5-5.3,2.8-7.6,4.6c-0.1,0.1-0.2,0.2-0.3,0.4
		c-0.6,0.6-1,1.2-1.5,2c-0.1,0.2-0.2,0.5-0.3,0.8c-0.2,0.5-0.3,1-0.5,1.6c-0.1,0.2,0,0.5-0.1,0.7c0,1.3,0,2.6,0,4c0,4.5,0,9,0,13.6
		c0,6.9,0,13.8,0,20.6c0,1.7,0,3.4,0,5.2c0,1.9,0,3.5,0.6,4.8c0.6,1.4,1.6,2.6,2.8,3.5c0.9,0.6,1.9,1.1,2.9,1.7
		c1.6,1,3.3,1.9,4.9,2.9c0.5,0.3,1.1,0.6,1.6,0.9c1.1,0.7,2.2,1.3,3.4,1.9c0.3,0.2,0.7,0.4,1,0.6c0.2,0.1,0.3,0.2,0.5,0.3
		c0-20.3,0-40.6,0-60.9c0-0.3,0.1-0.6,0.1-0.8c0.1-0.5,0.3-1,0.5-1.4c0.6-1.3,1.9-2.5,3.2-3.1c0.4-0.2,0.8-0.3,1.3-0.4
		c0.6-0.2,1.7-0.3,2.4-0.1c0.8,0.2,1.5,0.4,2.1,0.7c1,0.6,1.8,1.5,2.6,2.3c0.9,0.9,1.9,1.9,2.8,2.8c4.3,4.3,8.7,8.6,13,12.9
		c0.6,0.6,1.3,1.2,1.9,1.9c0.4,0.4,0.7,0.8,1.1,1.1c0.3,0.2,0.5,0.5,0.8,0.7c0.7,0.7,1.5,1.5,1.9,2.6c0.9,2.1,0.1,4.9-0.5,6.7
		c-0.2,0.6-0.3,1.3-0.6,1.9c0,0,0,0-0.1,0c-0.2-0.3-0.4-0.4-0.7-0.6c-0.4-0.4-0.8-0.8-1.2-1.2c-0.2-0.2-0.4-0.4-0.6-0.6
		c-0.4-0.3-0.7-0.7-1.1-1c-0.3-0.3-0.6-0.7-1-1c-0.4-0.4-0.9-0.9-1.3-1.3c-0.4-0.3-0.7-0.6-1-1c-0.1-0.1-0.2-0.2-0.3-0.3
		c-0.3-0.3-0.6-0.6-0.9-0.9c-0.3-0.2-0.5-0.5-0.8-0.7c-0.3-0.3-0.6-0.7-1-1c-0.1-0.1-0.2-0.2-0.3-0.3c-0.3-0.3-0.7-0.7-1.1-1
		c-0.1-0.1-0.2-0.2-0.3-0.3c-0.3-0.3-0.7-0.7-1.1-1c-1-1-2.1-2.1-3.1-3.1c-2.2-2.1-4.3-4.3-6.5-6.4c-0.7-0.7-1.4-1.4-2-2
		c-0.3-0.3-0.6-0.7-1-1c0,23.8,0,47.6,0,71.4c0,0,0,0-0.1,0c-0.1-0.2-0.4-0.2-0.6-0.3c-0.4-0.2-0.8-0.5-1.2-0.7
		c-1.2-0.7-2.4-1.4-3.5-2.1c-0.4-0.3-0.8-0.4-1.3-0.7c-4.3-2.7-8.9-5-13.2-7.7c-1.3-0.8-2.7-1.5-4.1-2.3c-1.3-0.8-2.7-1.5-4.1-2.3
		c-0.4-0.3-0.9-0.4-1.3-0.7c-0.4-0.3-0.8-0.6-1.2-0.9c-0.1-0.1-0.2-0.2-0.3-0.3c-0.5-0.5-0.9-1-1.3-1.6c-1.3-2.1-1-5.3-1-8.7
		c0-5.7,0-11.4,0-17.1c0-8.2,0-16.4,0-24.6c0-1.8,0-3.7,0-5.5c0-0.8-0.1-1.7,0.1-2.3c0-0.2,0-0.5,0.1-0.7c0.2-1,0.5-1.9,0.9-2.6
		c0.6-1,1.4-1.9,2.3-2.5c0.8-0.6,1.8-1,2.7-1.6c2-1.2,4-2.3,6-3.5c0.6-0.4,1.3-0.7,2-1.1c3.7-2.3,7.6-4.3,11.3-6.5
		c1.3-0.8,2.6-1.5,3.9-2.2c0.4-0.3,0.8-0.4,1.3-0.7c1.1-0.7,2.2-1.3,3.3-2c0.4-0.3,0.8-0.4,1.3-0.7c1.3-0.8,2.7-1.6,4-2.4
		c0.6-0.4,1.3-0.7,2-1.1c2-1.2,4-2.3,6-3.5c0.8-0.5,1.6-0.9,2.3-1.3C402.3,135.1,402.8,135,403.1,134.7z"/>
	<path class="st26" d="M420.5,144.7c0.3,0.1,0.6,0.3,0.8,0.5c0.6,0.4,1.3,0.7,1.9,1.1c0.4,0.3,0.8,0.4,1.3,0.7
		c1.3,0.8,2.7,1.6,4,2.4c1,0.6,2.1,1.2,3.2,1.8c4.3,2.7,8.9,5,13.2,7.7c1.6,1,3.3,1.8,4.8,2.8c0.4,0.3,0.8,0.6,1.2,0.9
		c0.2,0.2,0.4,0.4,0.6,0.7c0.2,0.2,0.4,0.4,0.5,0.6c0.4,0.5,0.7,1.1,0.9,1.7c0.5,1.3,0.5,3,0.5,4.9c0,2.1,0,4.2,0,6.3
		c0,7.9,0,15.9,0,23.8c0,5.7,0,11.4,0,17.1c0,3,0.3,6.3-0.9,8.2c-0.6,1-1.3,2-2.2,2.7c-1.1,0.8-2.3,1.3-3.4,2
		c-2.3,1.4-4.6,2.6-6.9,4c-0.6,0.4-1.2,0.6-1.8,1c-4.4,2.7-9,5.1-13.4,7.8c-1.3,0.8-2.6,1.5-3.9,2.2c-1.5,0.9-3,1.6-4.4,2.5
		c-2.2,1.3-4.5,2.6-6.7,3.9c-0.6,0.4-1.3,0.7-2,1.1c-1,0.6-2.1,1.2-3.2,1.8c-0.6,0.3-1.1,0.7-1.7,1c0-1.3,0-2.5,0-3.8
		c0.1-0.2,0-0.6,0-0.8c0-0.5,0.1-0.9,0.1-1.4c0.1-0.3,0.1-0.7,0.2-1c0.2-0.9,0.5-1.6,1-2.3c0.8-1.1,2.1-1.7,3.3-2.5
		c1.2-0.7,2.5-1.4,3.7-2.2c0.4-0.3,0.8-0.4,1.3-0.7c4.6-2.8,9.4-5.3,13.9-8.1c0.4-0.3,0.8-0.4,1.3-0.7c1.1-0.7,2.2-1.3,3.3-2
		c0.6-0.4,1.2-0.6,1.8-1c2-1.2,4.1-2.4,6.2-3.6c0.8-0.5,1.7-0.9,2.6-1.4c1.1-0.7,2-1.6,2.7-2.7c0.5-0.9,0.8-1.9,1.1-3.1
		c0.1-0.5,0.1-1.1,0.1-1.7c0-1,0-2.1,0-3.1c0-4.4,0-8.8,0-13.1c0-6.9,0-13.8,0-20.7c0-1.7,0-3.5,0-5.2c0-1.9,0-3.5-0.6-4.8
		c-0.6-1.4-1.6-2.6-2.8-3.5c-0.9-0.6-1.9-1.1-2.9-1.7c-1.6-1-3.3-1.9-4.9-2.9c-0.5-0.3-1.1-0.6-1.6-0.9c-1.1-0.7-2.2-1.3-3.4-1.9
		c-0.3-0.2-0.7-0.4-1-0.6c-0.2-0.1-0.3-0.2-0.5-0.3c0,20.3,0,40.6,0,60.9c0,0.3-0.1,0.6-0.1,0.8c-0.1,0.5-0.3,1-0.5,1.4
		c-0.6,1.3-1.9,2.5-3.2,3.1c-0.4,0.2-0.8,0.3-1.3,0.4c-0.6,0.2-1.7,0.3-2.4,0.1c-0.8-0.2-1.5-0.4-2.1-0.7c-1-0.6-1.8-1.5-2.6-2.3
		c-0.9-0.9-1.9-1.9-2.8-2.8c-4.3-4.3-8.7-8.6-13-12.9c-0.6-0.6-1.3-1.2-1.9-1.9c-0.4-0.4-0.7-0.8-1.1-1.1c-0.3-0.2-0.5-0.5-0.8-0.7
		c-0.7-0.7-1.5-1.5-1.9-2.6c-0.9-2.1-0.1-4.9,0.5-6.7c0.2-0.6,0.3-1.3,0.6-1.9c0,0,0,0,0.1,0c0.2,0.3,0.4,0.4,0.7,0.6
		c0.4,0.4,0.8,0.8,1.2,1.2c0.2,0.2,0.4,0.4,0.6,0.6c0.4,0.3,0.7,0.7,1.1,1c0.3,0.3,0.6,0.7,1,1c0.4,0.4,0.9,0.9,1.3,1.3
		c0.4,0.3,0.7,0.7,1.1,1c0.1,0.1,0.2,0.2,0.3,0.3c0.3,0.3,0.6,0.6,0.9,0.9c0.3,0.2,0.5,0.5,0.8,0.7c0.3,0.3,0.6,0.7,1,1
		c0.1,0.1,0.2,0.2,0.3,0.3c0.3,0.3,0.7,0.7,1.1,1c0.1,0.1,0.2,0.2,0.3,0.3c0.3,0.3,0.7,0.7,1.1,1c1,1,2.1,2.1,3.1,3.1
		c2.2,2.1,4.3,4.3,6.5,6.4c0.7,0.7,1.4,1.4,2,2c0.3,0.3,0.6,0.7,1,1C420.5,192.3,420.5,168.5,420.5,144.7z"/>
</g>
</svg>
