<svg id="Layer_1" data-name="Layer 1" xmlns="http://www.w3.org/2000/svg" xmlns:xlink="http://www.w3.org/1999/xlink" width="263.8" height="151.2" viewBox="0 0 263.8 151.2">
<style type="text/css">
	.st0{fill:none;}
	.st1{fill:#686868;}
	.st2{fill:#353535;}
	.st3{opacity:0.2;}
	.st4{fill:url(#SVGID_00000056419615062007862280000009199583473836661393_);}
</style>
<pattern  y="151.2" width="71" height="71" patternUnits="userSpaceOnUse" id="SVGID_1_" viewBox="0 -71 71 71" style="overflow:visible;">
	<g>
		<rect y="-71" class="st0" width="71" height="71"/>
		<rect y="-71" class="st0" width="71" height="71"/>
		<g>
			<polygon class="st0" points="0,-71 71,-71 71,0 0,0 			"/>
			<path d="M41.8-35.5c0,3.5-2.8,6.3-6.3,6.3s-6.3-2.8-6.3-6.3c0-3.5,2.8-6.3,6.3-6.3c0,0,0,0,0,0C39-41.8,41.8-39,41.8-35.5
				C41.8-35.5,41.8-35.5,41.8-35.5z"/>
		</g>
	</g>
</pattern>
<g>
	<path class="st1" d="M263.7,5.6c-0.5-3.2-3.2-5.6-6.5-5.6H6.6C3.3,0,0.5,2.4,0.1,5.6C0,6.3,0,7,0,7.7v127.4
		c0,8.9,7.2,16.1,16.1,16.1c0,0,0,0,0,0h231.6c8.9,0,16.1-7.2,16.1-16.1c0,0,0,0,0,0V7.7C263.8,6.9,263.7,6.2,263.7,5.6z"/>
	<g>
		<path class="st2" d="M259.3,1.9c0-1-0.9-1.9-1.9-1.9H6.2c-1,0-1.9,0.9-1.9,1.9l0,0v129.2c0,8.6,7,15.6,15.6,15.6h223.8
			c8.6,0,15.6-7,15.6-15.6V1.9z"/>
		<g class="st3">
			
				<pattern  id="SVGID_00000055671168816530823520000018139207230323059903_" xlink:href="#SVGID_1_" patternTransform="matrix(0.1 0 0 0.1 -15388.0498 -11938.4404)"  class="st3">
			</pattern>
			<path style="fill:url(#SVGID_00000055671168816530823520000018139207230323059903_);" d="M4.4,131.1c0,8.6,7,15.6,15.6,15.6
				h223.8c8.6,0,15.6-7,15.6-15.6V24.5H4.5L4.4,131.1L4.4,131.1z"/>
		</g>
	</g>
</g>
</svg>
